<?xml version="1.0" encoding="utf-8"?>
<!-- Generator: Adobe Illustrator 22.0.1, SVG Export Plug-In . SVG Version: 6.00 Build 0)  -->
<svg version="1.1" id="Layer_1" xmlns="http://www.w3.org/2000/svg" xmlns:xlink="http://www.w3.org/1999/xlink" x="0px" y="0px"
	 viewBox="0 0 632.9 709.3" style="enable-background:new 0 0 632.9 709.3;" xml:space="preserve">
<style type="text/css">
	.st0{fill:#F4F5F6;}
</style>
<g>
	<path class="st0" d="M316.5,354.6"/>
	<path class="st0" d="M316.5,354.6"/>
	<path class="st0" d="M316.5,354.6"/>
	<path class="st0" d="M316.5,354.6"/>
	<path class="st0" d="M316.5,354.6"/>
	<path class="st0" d="M316.5,354.6"/>
	<path class="st0" d="M316.5,354.6"/>
	<path class="st0" d="M316.5,354.6"/>
	<path class="st0" d="M293.5,549.2"/>
	<path class="st0" d="M161.5,376.7"/>
	<path class="st0" d="M540.7,670.1L112.5,124.4c-5.1-6.6-13-10.4-21.4-10.4H24.3C4.9,114-6,136.3,6,151.6l350.2,446.3
		c3,3.8,0.3,9.4-4.6,9.4L195.5,607c-4.9,0-7.6-5.6-4.5-9.4l55-68.4c2.5-3.1,2.5-7.5,0.1-10.6L192.9,451c-3.4-4.3-10-4.3-13.4,0
		L6.3,670c-12,15.2-1.2,37.6,18.2,37.6h497.9C541.8,707.6,552.6,685.3,540.7,670.1z"/>
	<path class="st0" d="M92.3,39.2l428.1,545.7c5.1,6.6,13,10.4,21.4,10.4h66.9c19.4,0,30.2-22.3,18.3-37.6L276.7,111.4
		c-3-3.8-0.3-9.4,4.6-9.4l156.3,0.3c4.8,0,7.5,5.6,4.5,9.4l-54.6,68.7c-2.5,3.1-2.5,7.5,0,10.6l53.2,67.5c3.4,4.3,10,4.3,13.4,0
		L626.8,39.2c12-15.2,1.2-37.6-18.2-37.6h-498C91.2,1.6,80.3,24,92.3,39.2z"/>
</g>
</svg>
