<?xml version="1.0" encoding="UTF-8"?>
<svg width="15px" height="20px" viewBox="0 0 15 20" version="1.1" xmlns="http://www.w3.org/2000/svg" xmlns:xlink="http://www.w3.org/1999/xlink">
    <!-- Generator: Sketch 56.2 (81672) - https://sketch.com -->
    <title>Group 14</title>
    <desc>Created with Sketch.</desc>
    <g id="Pages" stroke="none" stroke-width="1" fill="none" fill-rule="evenodd">
        <g id="Artboard-1-Copy-2" transform="translate(-811.000000, -218.000000)">
            <g id="Group-10" transform="translate(158.000000, 110.000000)">
                <g id="Group-10-Copy" transform="translate(474.000000, 0.000000)">
                    <g id="Group-5" transform="translate(10.000000, 90.000000)">
                        <g id="Group-14" transform="translate(166.000000, 18.000000)">
                            <rect id="Rectangle" x="0" y="0" width="20" height="20"></rect>
                            <g id="Group-12" transform="translate(3.000000, 0.000000)">
                                <g id="Group-13">
                                    <g id="Group-2">
                                        <path d="M5.5,7 L9.5,7 L9.5,5 C9.5,4.17157288 8.82842712,3.5 8,3.5 L7,3.5 C6.17157288,3.5 5.5,4.17157288 5.5,5 L5.5,7 Z M12.5,7.04147922 C13.9188567,7.27951827 15,8.51350186 15,10 L15,17 C15,18.6568542 13.6568542,20 12,20 L3,20 C1.34314575,20 2.02906125e-16,18.6568542 0,17 L0,10 C-1.82043519e-16,8.51350186 1.08114333,7.27951827 2.5,7.04147922 L2.5,5 C2.5,2.51471863 4.51471863,0.5 7,0.5 L8,0.5 C10.4852814,0.5 12.5,2.51471863 12.5,5 L12.5,7.04147922 Z M8.4375,13.8741584 C8.99793878,13.5499621 9.375,12.9440147 9.375,12.25 C9.375,11.2144661 8.53553391,10.375 7.5,10.375 C6.46446609,10.375 5.625,11.2144661 5.625,12.25 C5.625,12.9440147 6.00206122,13.5499621 6.5625,13.8741584 L6.5625,15.6875 C6.5625,16.205267 6.98223305,16.625 7.5,16.625 C8.01776695,16.625 8.4375,16.205267 8.4375,15.6875 L8.4375,13.8741584 Z" id="Combined-Shape" fill="#FFE187"></path>
                                        <g id="Group-11" transform="translate(5.625000, 10.375000)"></g>
                                    </g>
                                </g>
                            </g>
                        </g>
                    </g>
                </g>
            </g>
        </g>
    </g>
</svg>